<?xml version="1.0" standalone="no"?>
<!DOCTYPE svg PUBLIC "-//W3C//DTD SVG 20010904//EN"
 "http://www.w3.org/TR/2001/REC-SVG-20010904/DTD/svg10.dtd">
<svg version="1.0" xmlns="http://www.w3.org/2000/svg"
 width="41.000000pt" height="41.000000pt" viewBox="0 0 41.000000 41.000000"
 preserveAspectRatio="xMidYMid meet">

<g transform="translate(0.000000,41.000000) scale(0.100000,-0.100000)"
fill="#000000" stroke="none">
<path d="M148 383 c7 -3 16 -2 19 1 4 3 -2 6 -13 5 -11 0 -14 -3 -6 -6z"/>
<path d="M278 364 c36 -18 59 -38 77 -67 14 -23 25 -37 25 -32 0 39 -98 125
-142 125 -6 0 11 -12 40 -26z"/>
<path d="M75 349 c-36 -32 -65 -77 -65 -100 0 -8 5 -6 13 5 10 14 25 16 81 14
95 -4 102 -26 9 -30 l-68 -3 1 -48 c0 -53 21 -89 74 -125 58 -39 155 -22 199
34 19 24 41 32 41 15 0 -18 -43 -62 -78 -81 -21 -10 -32 -19 -27 -20 20 0 73
39 101 75 23 31 28 48 30 99 l1 61 -6 -55 -6 -55 -92 -3 c-78 -2 -93 0 -93 13
0 11 12 15 50 15 28 0 50 5 50 10 0 6 -16 10 -35 10 -24 0 -35 5 -35 15 0 11
11 15 36 15 54 0 37 24 -20 28 -59 4 -58 26 2 30 63 5 82 -10 82 -63 0 -32 4
-45 14 -45 37 0 18 101 -27 148 -60 62 -158 63 -220 1 -16 -17 -36 -29 -44
-27 -20 4 18 53 61 79 17 10 26 19 19 19 -7 0 -28 -14 -48 -31z m103 -151 c-3
-7 -21 -14 -41 -16 -47 -4 -48 -20 -2 -24 52 -4 47 -23 -7 -26 -44 -3 -48 -1
-54 22 -11 45 0 56 57 56 36 0 49 -4 47 -12z"/>
<path d="M2 200 c0 -19 2 -27 5 -17 2 9 2 25 0 35 -3 9 -5 1 -5 -18z"/>
<path d="M10 152 c0 -30 44 -94 81 -119 30 -19 55 -27 97 -29 l57 -3 -57 8
c-75 11 -122 43 -153 105 -14 28 -25 44 -25 38z"/>
</g>
</svg>
