<?xml version="1.0" standalone="no"?>
<!DOCTYPE svg PUBLIC "-//W3C//DTD SVG 20010904//EN"
 "http://www.w3.org/TR/2001/REC-SVG-20010904/DTD/svg10.dtd">
<svg version="1.0" xmlns="http://www.w3.org/2000/svg"
 width="169.000000pt" height="42.000000pt" viewBox="0 0 169.000000 42.000000"
 preserveAspectRatio="xMidYMid meet">

<g transform="translate(0.000000,42.000000) scale(0.100000,-0.100000)"
fill="#000000" stroke="none">
<path d="M115 388 c-32 -17 -76 -61 -91 -90 -18 -34 -19 -58 -1 -34 10 14 25
16 81 14 95 -4 102 -26 9 -30 l-68 -3 1 -48 c0 -53 21 -89 74 -125 58 -39 155
-22 199 34 10 13 24 24 30 24 33 0 -17 -63 -72 -91 -53 -28 -131 -23 -182 12
-41 28 -84 107 -86 158 -1 27 -3 30 -6 11 -12 -64 44 -160 111 -191 80 -36
164 -20 223 42 40 43 53 77 53 140 0 86 -59 167 -135 184 -21 5 -14 -1 23 -20
73 -37 104 -91 100 -172 l-3 -58 -92 -3 c-78 -2 -93 0 -93 13 0 11 12 15 50
15 28 0 50 5 50 10 0 6 -16 10 -35 10 -24 0 -35 5 -35 15 0 11 11 15 36 15 54
0 37 24 -20 28 -59 4 -58 26 2 30 63 5 82 -10 82 -63 0 -32 4 -45 14 -45 37 0
18 101 -27 148 -60 62 -158 63 -220 1 -16 -17 -37 -29 -46 -27 -25 5 47 76 94
93 22 8 31 14 20 14 -11 0 -29 -5 -40 -11z m63 -180 c-3 -7 -21 -14 -41 -16
-47 -4 -48 -20 -2 -24 52 -4 47 -23 -7 -26 -44 -3 -48 -1 -54 22 -11 45 0 56
57 56 36 0 49 -4 47 -12z"/>
<path d="M760 286 c0 -37 4 -66 10 -66 6 0 10 26 10 59 0 33 -4 63 -10 66 -6
4 -10 -18 -10 -59z"/>
<path d="M800 335 c0 -8 5 -15 10 -15 6 0 10 7 10 15 0 8 -4 15 -10 15 -5 0
-10 -7 -10 -15z"/>
<path d="M920 285 c0 -67 16 -91 22 -33 2 22 9 34 21 36 14 3 17 -4 17 -32 0
-20 5 -36 11 -36 6 0 9 17 7 43 -3 39 -5 42 -30 42 -23 -1 -28 4 -28 22 0 13
-4 23 -10 23 -6 0 -10 -28 -10 -65z"/>
<path d="M450 280 l0 -60 30 0 c17 0 30 5 30 10 0 6 -9 10 -20 10 -13 0 -20 7
-20 20 0 13 7 20 20 20 11 0 20 5 20 10 0 6 -9 10 -20 10 -11 0 -20 5 -20 10
0 6 9 10 20 10 11 0 20 5 20 10 0 6 -13 10 -30 10 l-30 0 0 -60z"/>
<path d="M1080 281 l0 -61 30 0 c37 0 44 15 33 72 -7 37 -12 43 -36 46 -27 3
-27 3 -27 -57z m40 24 c0 -8 -4 -15 -10 -15 -5 0 -10 7 -10 15 0 8 5 15 10 15
6 0 10 -7 10 -15z m10 -50 c0 -8 -7 -15 -15 -15 -8 0 -15 7 -15 15 0 8 7 15
15 15 8 0 15 -7 15 -15z"/>
<path d="M1481 319 c-8 -14 -9 -25 -2 -32 5 -7 11 -25 14 -42 l4 -30 2 30 c0
17 6 36 12 42 8 8 8 17 -3 32 l-14 20 -13 -20z"/>
<path d="M540 264 c0 -24 5 -44 10 -44 6 0 10 16 10 36 0 28 3 35 18 32 11 -2
18 -14 20 -36 4 -42 22 -41 22 2 0 39 -14 54 -52 54 -26 0 -28 -3 -28 -44z"/>
<path d="M652 298 c-15 -15 -15 -51 0 -66 7 -7 23 -12 36 -12 14 0 21 -4 16
-11 -3 -6 -19 -9 -35 -5 -36 7 -38 -11 -2 -20 42 -11 58 6 61 68 l3 55 -34 1
c-19 1 -39 -4 -45 -10z m56 -32 c4 -21 -14 -37 -35 -29 -14 5 -18 35 -6 47 12
12 38 1 41 -18z"/>
<path d="M800 265 c0 -25 5 -45 10 -45 6 0 10 20 10 45 0 25 -4 45 -10 45 -5
0 -10 -20 -10 -45z"/>
<path d="M843 293 c-4 -11 1 -22 15 -31 28 -18 29 -35 2 -27 -21 7 -29 -10 -7
-18 17 -6 47 11 47 27 0 8 -10 21 -22 29 -19 13 -20 16 -5 16 24 1 21 21 -3
21 -11 0 -24 -8 -27 -17z"/>
<path d="M1185 286 c-30 -45 16 -91 61 -61 28 18 31 46 8 69 -22 23 -51 20
-69 -8z m62 -12 c3 -8 -2 -23 -11 -32 -14 -15 -18 -15 -31 -1 -9 9 -13 23 -9
32 8 21 43 22 51 1z"/>
<path d="M1302 298 c-21 -21 -15 -68 11 -77 44 -17 86 39 57 75 -15 17 -52 18
-68 2z m56 -34 c3 -22 -21 -39 -39 -28 -11 6 -12 38 -2 48 13 13 38 1 41 -20z"/>
<path d="M1403 293 c-4 -11 1 -22 15 -31 28 -18 29 -35 2 -27 -21 7 -29 -10
-7 -18 17 -6 47 11 47 27 0 8 -10 21 -22 29 l-23 16 23 0 c28 1 19 21 -9 21
-11 0 -23 -8 -26 -17z"/>
<path d="M1541 291 c-6 -11 -11 -27 -11 -35 0 -21 43 -48 64 -40 25 10 19 23
-10 21 -15 -1 -29 4 -31 11 -3 8 8 12 37 12 42 0 42 0 28 23 -20 30 -63 35
-77 8z m59 -11 c0 -5 -9 -10 -20 -10 -11 0 -20 5 -20 10 0 6 9 10 20 10 11 0
20 -4 20 -10z"/>
<path d="M1640 264 c0 -24 5 -44 10 -44 6 0 10 12 10 27 0 14 7 34 15 43 15
16 14 18 -10 18 -23 0 -25 -4 -25 -44z"/>
</g>
</svg>
